# xmcd
#
# Track frame offsets:
#	150
#	14265
#	32060
#	47497
#	61551
#	76385
#	90369
#	108366
#	120945
#	136210
#	156179
#	174196
#	193981
#	210439
#	223047
#	239367
#	257418
#	272979
#	291557
#	308356
#
# Disc length: 4332 seconds
#
# Revision: 1
# Processed by: cddbd v1.5.2PL0 Copyright (c) Steve Scherf et al.
# Submitted via: audiograbber 1.83.01
#
DISCID=0610ea14
DTITLE=George Baker Selection - 100
DYEAR=1900
DGENRE=
TTITLE0=African dream
TTITLE1=Children of the world
TTITLE2=You're my Brightest star
TTITLE3=Island of dreams
TTITLE4=Padre
TTITLE5=Daughters of mine
TTITLE6=The rover
TTITLE7=Don't break this heart of mine
TTITLE8=Have another drink
TTITLE9=Jimmy
TTITLE10=Darling
TTITLE11=Look for the sun
TTITLE12=Don't forget me
TTITLE13=A song for you
TTITLE14=Pistolero
TTITLE15=In the morning
TTITLE16=Some words
TTITLE17=Send me a pillow
TTITLE18=I can't help myself
TTITLE19=let my son
EXTD=cd 5
EXTT0=
EXTT1=
EXTT2=
EXTT3=
EXTT4=
EXTT5=
EXTT6=
EXTT7=
EXTT8=
EXTT9=
EXTT10=
EXTT11=
EXTT12=
EXTT13=
EXTT14=
EXTT15=
EXTT16=
EXTT17=
EXTT18=
EXTT19=
PLAYORDER=
